<mxfile host="drawio-plugin" modified="2021-12-05T14:48:37.073Z" agent="5.0 (Macintosh; Intel Mac OS X 12_0_1) AppleWebKit/537.36 (KHTML, like Gecko) Chrome/89.0.4389.114 Safari/537.36" etag="unVh6hVgkHaRK1iTDqN5" version="14.7.4" type="embed"><diagram id="23iRSUPoRavnBvh4doch" name="Page-1"><mxGraphModel dx="1055" dy="837" grid="1" gridSize="10" guides="1" tooltips="1" connect="1" arrows="1" fold="1" page="1" pageScale="1" pageWidth="827" pageHeight="1169" math="0" shadow="0"><root><mxCell id="0"/><mxCell id="1" parent="0"/><mxCell id="10" value="" style="rounded=0;whiteSpace=wrap;html=1;align=left;fillColor=none;strokeColor=#0F0B00;" vertex="1" parent="1"><mxGeometry x="230" y="60" width="580" height="340" as="geometry"/></mxCell><mxCell id="13" style="edgeStyle=none;rounded=0;orthogonalLoop=1;jettySize=auto;html=1;entryX=0.75;entryY=0;entryDx=0;entryDy=0;endArrow=classic;endFill=1;strokeWidth=1;" edge="1" parent="1" source="2" target="12"><mxGeometry relative="1" as="geometry"/></mxCell><mxCell id="2" value="&lt;font style=&quot;font-size: 16px&quot;&gt;（採用選考）&lt;br&gt;選考ステータス：選考中&lt;br&gt;応募日: 3/27&lt;/font&gt;" style="rounded=1;whiteSpace=wrap;html=1;" vertex="1" parent="1"><mxGeometry x="270" y="100" width="210" height="100" as="geometry"/></mxCell><mxCell id="4" style="edgeStyle=orthogonalEdgeStyle;rounded=0;orthogonalLoop=1;jettySize=auto;html=1;entryX=1;entryY=0.5;entryDx=0;entryDy=0;endArrow=diamond;endFill=1;strokeWidth=2;" edge="1" parent="1" source="3" target="2"><mxGeometry relative="1" as="geometry"/></mxCell><mxCell id="3" value="&lt;font style=&quot;font-size: 16px&quot;&gt;（応募者）&lt;br&gt;名前：田中 太郎&lt;br&gt;メールアドレス：taro@example.com&lt;br&gt;&lt;/font&gt;" style="rounded=1;whiteSpace=wrap;html=1;" vertex="1" parent="1"><mxGeometry x="550" y="100" width="210" height="100" as="geometry"/></mxCell><mxCell id="7" style="edgeStyle=orthogonalEdgeStyle;rounded=0;orthogonalLoop=1;jettySize=auto;html=1;entryX=0.5;entryY=1;entryDx=0;entryDy=0;endArrow=diamond;endFill=1;strokeWidth=2;" edge="1" parent="1" source="5" target="2"><mxGeometry relative="1" as="geometry"/></mxCell><mxCell id="5" value="&lt;font style=&quot;font-size: 16px&quot;&gt;（面接）&lt;br&gt;面接次数：1次&lt;br&gt;日時：4/1 13:00&lt;br&gt;&lt;/font&gt;" style="rounded=1;whiteSpace=wrap;html=1;" vertex="1" parent="1"><mxGeometry x="270" y="240" width="210" height="100" as="geometry"/></mxCell><mxCell id="8" style="rounded=0;orthogonalLoop=1;jettySize=auto;html=1;entryX=0.99;entryY=0.94;entryDx=0;entryDy=0;entryPerimeter=0;endArrow=diamond;endFill=1;strokeWidth=2;" edge="1" parent="1" source="6" target="2"><mxGeometry relative="1" as="geometry"/></mxCell><mxCell id="6" value="&lt;font style=&quot;font-size: 16px&quot;&gt;（面接）&lt;br&gt;面接次数：2次&lt;br&gt;日時：4/8 14:00&lt;br&gt;&lt;/font&gt;" style="rounded=1;whiteSpace=wrap;html=1;" vertex="1" parent="1"><mxGeometry x="560" y="240" width="210" height="100" as="geometry"/></mxCell><mxCell id="11" style="edgeStyle=none;rounded=0;orthogonalLoop=1;jettySize=auto;html=1;entryX=-0.003;entryY=0.203;entryDx=0;entryDy=0;entryPerimeter=0;endArrow=none;endFill=0;strokeWidth=1;dashed=1;" edge="1" parent="1" source="9" target="10"><mxGeometry relative="1" as="geometry"/></mxCell><mxCell id="9" value="２次選考まで進んでいる、進行中の採用選考" style="rounded=0;whiteSpace=wrap;html=1;align=left;" vertex="1" parent="1"><mxGeometry x="30" y="100" width="150" height="60" as="geometry"/></mxCell><mxCell id="12" value="（採用ポジション）&lt;br&gt;ポジション名：サーバーサイドエンジニア&lt;br&gt;募集ステータス：募集中&lt;br&gt;募集人数：３人" style="rounded=1;whiteSpace=wrap;html=1;strokeColor=#0F0B00;fillColor=none;align=center;" vertex="1" parent="1"><mxGeometry x="20" y="340" width="170" height="120" as="geometry"/></mxCell><mxCell id="14" value="" style="rounded=0;whiteSpace=wrap;html=1;align=left;fillColor=none;strokeColor=#0F0B00;" vertex="1" parent="1"><mxGeometry x="230" y="430" width="580" height="340" as="geometry"/></mxCell><mxCell id="20" style="edgeStyle=none;rounded=0;orthogonalLoop=1;jettySize=auto;html=1;endArrow=classic;endFill=1;strokeWidth=1;" edge="1" parent="1" source="15" target="12"><mxGeometry relative="1" as="geometry"/></mxCell><mxCell id="15" value="&lt;font style=&quot;font-size: 16px&quot;&gt;（採用選考）&lt;br&gt;選考ステータス：不採用&lt;br&gt;応募日: 3/27&lt;/font&gt;" style="rounded=1;whiteSpace=wrap;html=1;" vertex="1" parent="1"><mxGeometry x="270" y="450" width="210" height="100" as="geometry"/></mxCell><mxCell id="17" style="edgeStyle=none;rounded=0;orthogonalLoop=1;jettySize=auto;html=1;endArrow=diamond;endFill=1;strokeWidth=1;" edge="1" parent="1" source="16" target="15"><mxGeometry relative="1" as="geometry"/></mxCell><mxCell id="16" value="&lt;font style=&quot;font-size: 16px&quot;&gt;（応募者）&lt;br&gt;名前：山本 二郎&lt;br&gt;メールアドレス：ziro@example.com&lt;br&gt;&lt;/font&gt;" style="rounded=1;whiteSpace=wrap;html=1;" vertex="1" parent="1"><mxGeometry x="560" y="450" width="210" height="100" as="geometry"/></mxCell><mxCell id="19" style="edgeStyle=none;rounded=0;orthogonalLoop=1;jettySize=auto;html=1;entryX=0.5;entryY=1;entryDx=0;entryDy=0;endArrow=diamond;endFill=1;strokeWidth=1;" edge="1" parent="1" source="18" target="15"><mxGeometry relative="1" as="geometry"/></mxCell><mxCell id="18" value="&lt;font style=&quot;font-size: 16px&quot;&gt;（面接）&lt;br&gt;面接次数：1次&lt;br&gt;日時：3/21 17:00&lt;br&gt;&lt;/font&gt;" style="rounded=1;whiteSpace=wrap;html=1;" vertex="1" parent="1"><mxGeometry x="270" y="610" width="210" height="100" as="geometry"/></mxCell><mxCell id="22" style="edgeStyle=none;rounded=0;orthogonalLoop=1;jettySize=auto;html=1;entryX=0;entryY=0.75;entryDx=0;entryDy=0;endArrow=none;endFill=0;strokeWidth=1;dashed=1;" edge="1" parent="1" source="21" target="14"><mxGeometry relative="1" as="geometry"/></mxCell><mxCell id="21" value="1次面接で不採用になった採用選考" style="rounded=0;whiteSpace=wrap;html=1;align=left;" vertex="1" parent="1"><mxGeometry x="40" y="660" width="150" height="60" as="geometry"/></mxCell></root></mxGraphModel></diagram></mxfile>